<svg width="28" height="31" viewBox="0 0 28 31" fill="none" xmlns="http://www.w3.org/2000/svg">
<path d="M24.8438 2.46436H21.4648V0.15918H20.4648V2.46436H16.9023V0.15918H15.9023V2.46436H12.3398V0.15918H11.3398V2.46436H7.77734V0.15918H6.77734V2.46436H3.14844C1.49414 2.46436 0.148438 3.81006 0.148438 5.46436V27.1592C0.148438 28.8135 1.49414 30.1592 3.14844 30.1592H24.8438C26.498 30.1592 27.8438 28.8135 27.8438 27.1592V5.46436C27.8438 3.81006 26.498 2.46436 24.8438 2.46436ZM3.14844 4.46436H6.77734V6.58301H7.77734V4.46436H11.3398V6.58301H12.3398V4.46436H15.9023V6.58301H16.9023V4.46436H20.4648V6.58301H21.4648V4.46436H24.8438C25.3955 4.46436 25.8438 4.91309 25.8438 5.46436V9.85352H2.14844V5.46436C2.14844 4.91309 2.59668 4.46436 3.14844 4.46436ZM24.8438 28.1592H3.14844C2.59668 28.1592 2.14844 27.7104 2.14844 27.1592V10.8535H25.8438V27.1592C25.8438 27.7104 25.3955 28.1592 24.8438 28.1592Z" fill="#2e2e2e"/>
<path d="M18.1787 15.1909H17.1787V16.9058H10.3418V15.1909H9.3418V16.9058H6.89746V17.9058H9.3418V21.1885H6.89746V22.1885H9.3418V24.2095H10.3418V22.1885H17.1787V24.2095H18.1787V22.1885H21.2109V21.1885H18.1787V17.9058H21.2109V16.9058H18.1787V15.1909ZM17.1787 21.1885H10.3418V17.9058H17.1787V21.1885Z" fill="#2e2e2e"/>
</svg>
