<svg width="31" height="31" viewBox="0 0 31 31" fill="none" xmlns="http://www.w3.org/2000/svg">
<path d="M30.0146 3.55176C30.0146 2.0127 28.7627 0.760742 27.2236 0.760742H7.56934C6.03027 0.760742 4.77832 2.0127 4.77832 3.55176V20.1406H1.01465C0.461914 20.1406 0.0146484 20.5879 0.0146484 21.1406V24.2295C0.0146484 27.3447 2.36621 29.9814 5.60645 30.499C5.64355 30.5049 5.68066 30.5088 5.7168 30.5107C5.83691 30.5605 5.96777 30.5889 6.10547 30.5889H24.1279C24.1642 30.5889 24.1948 30.572 24.2302 30.5682C24.2527 30.5714 24.271 30.5843 24.2939 30.5859C24.584 30.6074 24.8633 30.6182 25.1299 30.6182C26.748 30.6182 27.9502 30.2334 28.791 29.4512C29.6025 28.6953 30.0146 27.5996 30.0146 26.1934V12.1914C30.0146 12.1912 30.0145 12.1911 30.0145 12.1909C30.0145 12.1907 30.0146 12.1906 30.0146 12.1904V3.55176V3.55176ZM6.15039 28.5889C6.0791 28.5586 6.00293 28.5371 5.92285 28.5244C3.6582 28.1621 2.01465 26.3564 2.01465 24.2295V22.1406H20.2705L20.2734 25.5098C20.4023 26.8965 20.7402 27.874 21.2461 28.5889H6.15039ZM28.0146 26.1934C28.0146 27.0332 27.8232 27.6201 27.4277 27.9873C26.9377 28.4432 26.0105 28.6417 24.7666 28.5974C24.6719 28.5176 24.5668 28.4492 24.4443 28.4082C23.2637 28.0156 22.4746 27.5889 22.2695 25.418V21.1406C22.2695 20.5879 21.8223 20.1406 21.2695 20.1406H6.77832V3.55176C6.77832 3.11523 7.13281 2.76074 7.56934 2.76074H27.2236C27.6602 2.76074 28.0146 3.11523 28.0146 3.55176V12.1904C28.0146 12.1906 28.0148 12.1907 28.0148 12.1909C28.0148 12.1911 28.0146 12.1912 28.0146 12.1914V26.1934Z" fill="#707070"/>
<path d="M24.3887 8.7373H10.3887V9.7373H24.3887V8.7373Z" fill="#707070"/>
<path d="M24.3887 12.4707H10.3887V13.4707H24.3887V12.4707Z" fill="#707070"/>
<path d="M24.3887 16.2041H10.3887V17.2041H24.3887V16.2041Z" fill="#707070"/>
</svg>
