<svg width="31" height="31" viewBox="0 0 31 31" fill="none" xmlns="http://www.w3.org/2000/svg">
<path d="M12.2097 2.21179V11.7118H2.70972V2.21179H12.2097V2.21179ZM13.2097 0.211792H1.70972C1.15991 0.211792 0.709717 0.661789 0.709717 1.21179V12.7118C0.709717 13.2618 1.15991 13.7118 1.70972 13.7118H13.2097C13.7598 13.7118 14.2097 13.2618 14.2097 12.7118V1.21179C14.2097 0.661789 13.7598 0.211792 13.2097 0.211792Z" fill="#ffffff"/>
<path d="M28.7097 2.21179V11.7118H19.2097V2.21179H28.7097V2.21179ZM29.7097 0.211792H18.2097C17.6599 0.211792 17.2097 0.661789 17.2097 1.21179V12.7118C17.2097 13.2618 17.6599 13.7118 18.2097 13.7118H29.7097C30.2598 13.7118 30.7097 13.2618 30.7097 12.7118V1.21179C30.7097 0.661789 30.2598 0.211792 29.7097 0.211792Z" fill="#ffffff"/>
<path d="M12.2097 18.7118V28.2118H2.70972V18.7118H12.2097ZM13.2097 16.7118H1.70972C1.15991 16.7118 0.709717 17.1618 0.709717 17.7118V29.2118C0.709717 29.7618 1.15991 30.2118 1.70972 30.2118H13.2097C13.7598 30.2118 14.2097 29.7618 14.2097 29.2118V17.7118C14.2097 17.1618 13.7598 16.7118 13.2097 16.7118Z" fill="#ffffff"/>
<path d="M28.7097 18.7118V28.2118H19.2097V18.7118H28.7097ZM29.7097 16.7118H18.2097C17.6599 16.7118 17.2097 17.1618 17.2097 17.7118V29.2118C17.2097 29.7618 17.6599 30.2118 18.2097 30.2118H29.7097C30.2598 30.2118 30.7097 29.7618 30.7097 29.2118V17.7118C30.7097 17.1618 30.2598 16.7118 29.7097 16.7118Z" fill="#ffffff"/>
</svg>
