<svg width="27" height="31" viewBox="0 0 27 31" fill="none" xmlns="http://www.w3.org/2000/svg">
<path d="M10.3125 12.4404C10.0361 12.4404 9.8125 12.6641 9.8125 12.9404V21.5195C9.8125 21.7959 10.0361 22.0195 10.3125 22.0195C10.5889 22.0195 10.8125 21.7959 10.8125 21.5195V12.9404C10.8125 12.6641 10.5889 12.4404 10.3125 12.4404Z" fill="#2e2e2e"/>
<path d="M16.3564 12.4404C16.0801 12.4404 15.8564 12.6641 15.8564 12.9404V21.5195C15.8564 21.7959 16.0801 22.0195 16.3564 22.0195C16.6328 22.0195 16.8564 21.7959 16.8564 21.5195V12.9404C16.8564 12.6641 16.6328 12.4404 16.3564 12.4404Z" fill="#2e2e2e"/>
<path d="M25.415 4.52832H21.1299H19.3091C19.3203 4.43732 19.3369 4.34784 19.3369 4.25391V2.29492C19.3369 1.04102 18.3184 0.0205078 17.0654 0.0205078H9.60254C8.35156 0.0205078 7.33301 1.04102 7.33301 2.29492V4.25391C7.33301 4.34784 7.34961 4.43732 7.36084 4.52832H5.79297H1.25391C0.701172 4.52832 0.253906 4.97559 0.253906 5.52832C0.253906 6.08105 0.701172 6.52832 1.25391 6.52832H3.33813C3.29541 6.71643 3.26758 6.9101 3.26758 7.11133V27.4385C3.26758 28.8623 4.40039 30.0205 5.79297 30.0205H21.1299C22.5215 30.0205 23.6543 28.8623 23.6543 27.4385V7.11133C23.6543 6.9101 23.6265 6.71643 23.5837 6.52832H25.415C25.9678 6.52832 26.415 6.08105 26.415 5.52832C26.415 4.97559 25.9678 4.52832 25.415 4.52832ZM9.33301 4.25391V2.29492C9.33301 2.14355 9.4541 2.02051 9.60254 2.02051H17.0654C17.2178 2.02051 17.3369 2.14062 17.3369 2.29492V4.25391C17.3369 4.4082 17.2178 4.52832 17.0654 4.52832H9.60254C9.4541 4.52832 9.33301 4.40527 9.33301 4.25391ZM21.6543 7.11133V27.4385C21.6543 27.7598 21.4189 28.0205 21.1299 28.0205H5.79297C5.50293 28.0205 5.26758 27.7598 5.26758 27.4385V7.11133C5.26758 6.79004 5.50293 6.52832 5.79297 6.52832H9.60254H17.0654H21.1299C21.4189 6.52832 21.6543 6.79004 21.6543 7.11133Z" fill="#2e2e2e"/>
</svg>
