<svg width="26" height="31" viewBox="0 0 26 31" fill="none" xmlns="http://www.w3.org/2000/svg">
<path d="M25.0117 5.92969L19.7314 0.6875C19.5449 0.501953 19.291 0.397461 19.0273 0.397461H7.54688C5.8457 0.397461 4.46094 1.78223 4.46094 3.4834V4.56934H3.375C1.67383 4.56934 0.289062 5.9541 0.289062 7.65527V27.3105C0.289062 29.0127 1.67383 30.3975 3.375 30.3975H18.0488C19.751 30.3975 21.1357 29.0127 21.1357 27.3105V26.2246H22.2217C23.9229 26.2246 25.3076 24.8398 25.3076 23.1387V6.63965C25.3076 6.37305 25.2012 6.11816 25.0117 5.92969ZM19.1357 27.3105C19.1357 27.9102 18.6484 28.3975 18.0488 28.3975H3.375C2.77637 28.3975 2.28906 27.9102 2.28906 27.3105V7.65527C2.28906 7.05664 2.77637 6.56934 3.375 6.56934H4.46094V23.1387C4.46094 24.8398 5.8457 26.2246 7.54688 26.2246H19.1357V27.3105ZM23.3076 23.1387C23.3076 23.7373 22.8203 24.2246 22.2217 24.2246H7.54688C6.94824 24.2246 6.46094 23.7373 6.46094 23.1387V3.4834C6.46094 2.88477 6.94824 2.39746 7.54688 2.39746H18.6152L23.3076 7.05566V23.1387V23.1387Z" fill="#ffffff"/>
<path d="M19.0918 16.5693H10.748C10.4717 16.5693 10.248 16.793 10.248 17.0693C10.248 17.3457 10.4717 17.5693 10.748 17.5693H19.0918C19.3682 17.5693 19.5918 17.3457 19.5918 17.0693C19.5918 16.793 19.3682 16.5693 19.0918 16.5693Z" fill="#ffffff"/>
<path d="M19.0918 12.8359H10.748C10.4717 12.8359 10.248 13.0596 10.248 13.3359C10.248 13.6123 10.4717 13.8359 10.748 13.8359H19.0918C19.3682 13.8359 19.5918 13.6123 19.5918 13.3359C19.5918 13.0596 19.3682 12.8359 19.0918 12.8359Z" fill="#ffffff"/>
<path d="M10.248 9.60254C10.248 9.87891 10.4717 10.1025 10.748 10.1025H19.0918C19.3682 10.1025 19.5918 9.87891 19.5918 9.60254C19.5918 9.32617 19.3682 9.10254 19.0918 9.10254H10.748C10.4717 9.10254 10.248 9.32617 10.248 9.60254Z" fill="#ffffff"/>
</svg>
