<svg width="31" height="28" viewBox="0 0 31 28" fill="none" xmlns="http://www.w3.org/2000/svg">
<path d="M27.3262 6.98486H19.4922V2.7876C19.4922 1.51953 18.3545 0.488281 16.9561 0.488281H3.13574C1.73828 0.488281 0.600586 1.51953 0.600586 2.7876V10.125V10.5835V24.1504C0.600586 25.8818 2.06934 27.29 3.87402 27.29H27.3262C29.1318 27.29 30.6006 25.8818 30.6006 24.1504V10.125C30.6006 8.39355 29.1318 6.98486 27.3262 6.98486ZM3.13574 2.48828H16.9561C17.2891 2.48828 17.4922 2.68213 17.4922 2.7876V6.98486H3.87402C3.4292 6.98486 3.0011 7.08923 2.60059 7.25287V2.7876C2.60059 2.68213 2.80371 2.48828 3.13574 2.48828ZM28.6006 24.1504C28.6006 24.7788 28.0293 25.29 27.3262 25.29H3.87402C3.17188 25.29 2.60059 24.7788 2.60059 24.1504V10.5835V10.125C2.60059 9.89648 2.67578 9.67578 2.81836 9.48828C3.05762 9.17285 3.45215 8.98486 3.87402 8.98486H27.3262C28.0293 8.98486 28.6006 9.49609 28.6006 10.125V24.1504Z" fill="#2e2e2e"/>
</svg>
