<svg width="31" height="28" viewBox="0 0 31 28" fill="none" xmlns="http://www.w3.org/2000/svg">
<path d="M6.31463 5.43781C6.30462 5.43463 6.29412 5.43036 6.28423 5.42731C5.97881 5.32977 5.67095 5.26819 5.38494 5.2597C5.3615 5.25897 5.33843 5.25867 5.31536 5.25867C5.0562 5.25867 4.82134 5.30408 4.61858 5.40015L4.53508 5.43921C4.49492 5.45947 4.52178 5.44122 4.49517 5.46008C4.46465 5.48199 4.42278 5.51746 4.39043 5.55798C4.31963 5.63641 4.25969 5.73157 4.22136 5.84021C4.0501 6.2674 4.18853 6.92438 4.52227 7.51813C4.8521 8.11664 5.29717 8.70312 5.80401 9.22034C6.68316 10.1342 7.74114 10.8762 8.87591 11.5153C7.58831 9.84204 6.49968 7.86395 6.31878 5.64972C6.31255 5.57422 6.31719 5.50964 6.31463 5.43781Z" fill="#ffffff"/>
<path d="M30.6918 4.90466C30.5674 4.43219 30.3449 3.96381 30.0373 3.53949C29.8972 3.33783 29.7128 3.12695 29.495 2.92529V2.92535C29.4079 2.84436 29.2119 2.672 28.984 2.53461L28.8335 2.44159C28.1267 2.0191 27.3188 1.77905 26.4709 1.73163C26.3761 1.72626 26.2805 1.72314 26.1855 1.72229C25.9561 1.57422 25.6946 1.47205 25.414 1.42767C23.9986 0.731079 21.2801 0.159546 16.0545 0.159546C16.0078 0.159546 15.9617 0.161133 15.9158 0.164307L15.8976 0.163879C15.6695 0.161133 15.4429 0.159546 15.221 0.159546C10.1618 0.159546 7.54922 0.740418 6.199 1.44464C5.95364 1.49536 5.72452 1.59076 5.52066 1.72229C5.42544 1.72314 5.32962 1.72626 5.23306 1.73175C4.38711 1.77905 3.57889 2.01917 2.89798 2.42609L2.72342 2.53363C2.49502 2.67108 2.29837 2.84412 2.21097 2.92535V2.92529C1.99319 3.12695 1.80875 3.33783 1.647 3.56995C1.36148 3.96313 1.1387 4.4317 1.00699 4.93152C0.790557 5.70831 0.800322 6.58173 1.04202 7.43494C1.12295 7.75134 1.23196 8.00342 1.31265 8.19L1.36197 8.30579C1.3931 8.38184 1.42898 8.45593 1.46915 8.52753L1.54166 8.66071C1.63003 8.82562 1.74026 9.03088 1.89017 9.24652C2.40872 10.025 3.05093 10.7489 3.83133 11.427C5.05215 12.4997 6.53909 13.4003 8.36868 14.1729C8.43106 14.2003 8.49808 14.2287 8.56778 14.2577C9.29678 15.0641 10.016 15.7734 10.56 16.3099C10.6171 16.3663 10.6776 16.4192 10.7412 16.4683C11.5171 17.0681 12.6313 18.9803 12.6109 20.6116C12.6099 20.6937 12.6076 20.7626 12.6045 20.8199C12.4801 20.9077 12.3332 21.0172 12.1723 21.1562C10.649 21.367 8.86197 21.8257 8.79715 23.6027C8.76443 23.9144 8.76712 24.2899 8.78409 24.7999L8.78616 24.8663C8.78384 26.3096 9.63675 27.6425 15.6001 27.717L15.7799 27.7181L16.053 27.7166V27.7162C16.067 27.7164 16.0812 27.7166 16.0952 27.7166C16.1126 27.7166 16.1299 27.7164 16.1474 27.7161C16.149 27.7161 16.2117 27.7162 16.2133 27.7162L16.2765 27.7159C16.3177 27.7155 16.3584 27.7137 16.3988 27.7109C21.0526 27.6089 22.9435 26.7715 22.9196 24.8296L22.9219 24.8C22.9389 24.2888 22.9417 23.9126 22.9086 23.6005C22.8417 21.8254 21.0561 21.3669 19.5338 21.1562C19.373 21.0172 19.226 20.9077 19.1015 20.8199C19.0985 20.7626 19.0961 20.6937 19.0951 20.6116C19.0747 18.9803 20.1887 17.0681 20.9646 16.4683C21.0282 16.4192 21.0888 16.3663 21.1459 16.3099C21.6901 15.7731 22.4097 15.0634 23.1383 14.2576C23.2128 14.2266 23.2871 14.195 23.3612 14.1625C25.1671 13.4001 26.6541 12.4996 27.883 11.4197C28.6549 10.7489 29.2973 10.025 29.838 9.21387C29.9662 9.03009 30.0764 8.82465 30.1649 8.65955L30.2372 8.52667C30.277 8.45563 30.3125 8.38214 30.3435 8.3067L30.3926 8.19141C30.4734 8.00452 30.5827 7.75189 30.6638 7.435C30.9055 6.5816 30.9153 5.70764 30.6918 4.90466ZM28.7321 6.91602C28.6767 7.14557 28.5777 7.34155 28.4931 7.54785C28.388 7.73511 28.293 7.93311 28.174 8.10437C27.7084 8.80267 27.1652 9.39386 26.5628 9.91736C25.3668 10.9683 23.9738 11.7331 22.5592 12.3304C22.3579 12.4185 22.1547 12.499 21.9522 12.5819C21.1852 13.4591 20.4043 14.2322 19.7415 14.8859C18.5116 15.8366 17.0666 18.3434 17.0952 20.6365C17.1184 22.494 17.6992 21.9857 18.5814 23.0302C18.5779 23.0381 18.5742 23.0453 18.5707 23.0529C19.721 23.1845 20.907 23.4178 20.9104 23.6929C20.9106 23.7032 20.9086 23.7134 20.9066 23.7236C20.9606 23.9705 20.9186 24.7755 20.9197 24.8542C20.9251 25.2898 18.6339 25.6674 16.2548 25.7134V25.716C16.241 25.7161 16.2272 25.7162 16.2133 25.7162C16.1945 25.7162 16.1754 25.7161 16.1565 25.7161C16.1455 25.7161 16.1344 25.7161 16.1234 25.7162C16.1092 25.7164 16.095 25.7169 16.0807 25.7172V25.7164C15.9805 25.7171 15.8804 25.7181 15.7799 25.7181C15.7284 25.7181 15.6768 25.7178 15.6252 25.7172C13.185 25.6866 10.7808 25.3004 10.7863 24.8542C10.7874 24.7755 10.7454 23.9705 10.7993 23.7236C10.7973 23.7134 10.7953 23.7032 10.7954 23.6929C10.799 23.4178 11.9849 23.1845 13.1353 23.0529C13.1316 23.0453 13.1281 23.0381 13.1245 23.0302C14.0067 21.9857 14.5877 22.494 14.6107 20.6365C14.6393 18.3434 13.1942 15.8366 11.9644 14.8859C11.3015 14.2322 10.5208 13.4591 9.75381 12.5819C9.5513 12.499 9.34805 12.4185 9.14676 12.3304C7.73221 11.7331 6.33926 10.9683 5.14322 9.91736C4.5408 9.39386 3.99759 8.80267 3.53201 8.10437C3.41287 7.93311 3.31802 7.73511 3.2128 7.54785C3.12833 7.34155 3.0292 7.14557 2.97378 6.91602C2.84488 6.47522 2.79727 5.95715 2.94095 5.4411C3.00857 5.18445 3.12674 4.93567 3.28812 4.71313C3.36722 4.59961 3.45804 4.49628 3.56985 4.39276C3.61429 4.34894 3.71524 4.2691 3.75906 4.24469L3.92386 4.14294C4.36917 3.87683 4.87466 3.75488 5.34671 3.72852C5.42435 3.72412 5.50137 3.72198 5.57767 3.72198C5.89798 3.72198 6.20706 3.75891 6.50613 3.81641C6.53787 3.68176 6.56985 3.5481 6.60464 3.40308C6.642 3.46631 6.69583 3.5246 6.74881 3.58319C6.74881 3.58282 6.74856 3.58258 6.74856 3.58221C6.75613 2.96759 9.96487 2.15955 15.221 2.15955C15.4348 2.15955 15.6532 2.16107 15.8738 2.16376C15.9344 2.16449 15.994 2.16626 16.054 2.16766L16.0545 2.15955C21.3106 2.15955 24.9499 2.96759 24.9574 3.58221C24.9574 3.58258 24.9571 3.58282 24.9571 3.58319C25.0102 3.5246 25.064 3.46631 25.1015 3.40308C25.136 3.5481 25.1681 3.68176 25.1999 3.81641C25.4989 3.75891 25.8079 3.72198 26.1282 3.72198C26.2046 3.72198 26.2816 3.72412 26.3593 3.72852C26.8312 3.75488 27.3367 3.87683 27.7821 4.14294L27.9468 4.24469C27.9906 4.2691 28.0917 4.34894 28.1361 4.39276C28.248 4.49628 28.3388 4.59961 28.4179 4.71313C28.5791 4.93567 28.6974 5.18445 28.765 5.4411C28.9087 5.95715 28.861 6.47522 28.7321 6.91602Z" fill="#ffffff"/>
<path d="M27.3156 5.55798C27.2832 5.51746 27.2412 5.48199 27.2107 5.46008C27.1842 5.44122 27.211 5.45947 27.1708 5.43921L27.0874 5.40015C26.8847 5.30402 26.6497 5.25867 26.3907 5.25867C26.3676 5.25867 26.3444 5.25897 26.3211 5.2597C26.0349 5.26819 25.7272 5.32977 25.4218 5.42731C25.4119 5.43036 25.4013 5.43463 25.3914 5.43781C25.3887 5.50964 25.3936 5.57422 25.3872 5.64972C25.2062 7.86395 24.1177 9.84216 22.83 11.5153C23.9649 10.8762 25.0227 10.1342 25.902 9.22034C26.4088 8.70312 26.8539 8.11664 27.1837 7.51813C27.5174 6.92438 27.6559 6.2674 27.4846 5.84021C27.4463 5.73157 27.3864 5.63641 27.3156 5.55798Z" fill="#ffffff"/>
<path d="M17.6911 5.52234H16.9975L16.692 7.76746H15.4698L15.7633 5.52234H15.0819L14.776 7.76746H13.6593V8.46106H14.6704L14.4469 10.1652H13.3772V10.8589H14.3413L14.0354 13.1626H14.7406L15.0465 10.8589H16.269L15.963 13.1626H16.6684L16.9743 10.8589H18.091V10.1652H17.0797L17.2912 8.46106H18.3607V7.76746H17.3974L17.6911 5.52234ZM16.3747 10.1652H15.1523L15.3756 8.46106H16.5981L16.3747 10.1652Z" fill="#ffffff"/>
</svg>
