<svg width="26" height="31" viewBox="0 0 26 31" fill="none" xmlns="http://www.w3.org/2000/svg">
<path d="M6.53424 4.68939C6.06036 4.68939 5.68317 5.07129 5.68317 5.53815C5.68317 6.0036 6.06647 6.38785 6.53424 6.38785H22.4734C22.9473 6.38785 23.3231 6.0036 23.3231 5.53815C23.3231 5.07129 22.9396 4.68939 22.4734 4.68939H6.53424Z" fill="#2e2e2e"/>
<path d="M24.507 8.54703L23.9625 8.52631H21.7834H5.54968C4.05603 8.52631 2.84155 7.19672 2.84155 5.56122C2.84155 3.92496 4.05603 2.5954 5.54968 2.5954H22.6545H24.306H24.507C25.019 2.5954 25.4363 2.16074 25.4363 1.62933C25.4363 1.09494 25.019 0.659363 24.507 0.659363H24.306H22.6545H5.54968C3.28308 0.659363 1.39844 2.38608 0.993591 4.65643L0.90625 25.434H0.940063C0.930786 25.5444 0.90625 25.6455 0.90625 25.7575C0.90625 28.4603 2.98865 30.6594 5.54968 30.6594H24.7676V30.6501H25.4363V9.51544C25.4331 8.98248 25.019 8.54703 24.507 8.54703ZM5.68317 28.7133V28.7233H5.54968C4.05603 28.7233 2.84155 27.3945 2.84155 25.7575V25.434V24.7079V9.52768C3.60516 10.1089 4.53607 10.4639 5.54968 10.4639H21.7834H22.5547C22.5901 10.4677 22.6191 10.4839 22.6545 10.4839H23.4995V28.7133H5.68317Z" fill="#2e2e2e"/>
<path d="M16.8868 24.4819L13.1631 22.5234L9.43658 24.4819L10.1495 20.334L7.13385 17.396L11.3008 16.791L13.1631 13.0161L15.0245 16.791L19.1895 17.396L16.1758 20.3345L16.8868 24.4819ZM9.28424 18.0942L11.2237 19.9854L10.7647 22.6538L13.1631 21.3936L15.5587 22.6538L15.1016 19.9849L17.0411 18.0942L14.3604 17.7051L13.1631 15.2769L11.9649 17.7051L9.28424 18.0942Z" fill="#2e2e2e"/>
</svg>
