<svg width="31" height="26" viewBox="0 0 31 26" fill="none" xmlns="http://www.w3.org/2000/svg">
<path d="M17.322 11.619L17.3179 11.6218L10.5803 4.883L9.25098 6.2124L14.9858 11.946H0.236572V14.0015H14.938L9.28613 19.6562L10.6128 20.9857L17.3179 14.2807L17.322 14.2836L18.6514 12.9541L18.6484 12.9512L18.6514 12.9485L17.322 11.619Z" fill="#707070"/>
<path d="M25.501 0.650452H22.2998C21.7473 0.650452 21.3003 1.09747 21.3003 1.6499C21.3003 2.20233 21.7473 2.64935 22.2998 2.64935H25.501C27.01 2.64935 28.2378 3.87622 28.2378 5.38513V20.483C28.2378 21.9919 27.01 23.2198 25.501 23.2198H22.3252C21.7727 23.2198 21.3257 23.6667 21.3257 24.2192C21.3257 24.7716 21.7727 25.2186 22.3252 25.2186H25.501C28.1118 25.2186 30.2366 23.0939 30.2366 20.483V5.38513C30.2366 2.77429 28.1118 0.650452 25.501 0.650452Z" fill="#707070"/>
</svg>
