<svg width="29" height="31" viewBox="0 0 29 31" fill="none" xmlns="http://www.w3.org/2000/svg">
<path d="M10.4795 8.24217C10.209 8.29979 10.0362 8.56541 10.0938 8.83494C10.1524 9.10643 10.4287 9.2744 10.6866 9.22069C14.5479 8.40428 15.6573 11.6963 15.7032 11.8369C15.7715 12.0478 15.9678 12.1826 16.1787 12.1826C16.2295 12.1826 16.2813 12.1748 16.3321 12.1582C16.5938 12.0742 16.7393 11.7939 16.6553 11.5312C16.6407 11.4883 15.2198 7.23533 10.4795 8.24217Z" fill="#707070"/>
<path d="M27.8447 20.0996L23.7373 16.9375C23.5293 16.3359 23.3203 15.6748 23.0996 14.9775C21.4658 9.80956 19.0215 2.11718 11.8086 3.10644C11.8008 3.08105 11.792 3.05663 11.7842 3.03222C11.4765 2.15331 10.7871 1.43358 9.89353 1.05565C9.07029 0.706046 8.13572 0.666983 7.25682 0.941397C6.33982 1.23144 5.59275 1.83105 5.15525 2.62304C4.68943 3.45312 4.60252 4.39355 4.90916 5.26659C4.91307 5.27636 4.916 5.28612 4.9199 5.29589C1.89939 7.14941 0.317362 10.7266 1.02537 14.335C1.4326 16.4131 2.249 18.4756 3.03904 20.4707C3.41307 21.415 3.76658 22.3096 4.0781 23.1982L2.22459 28.4238C2.02439 28.9883 2.15916 29.6094 2.57713 30.0439C3.00975 30.4932 3.65135 30.6562 4.25291 30.4707L10.1142 28.6475C10.2051 28.6445 10.2978 28.6299 10.3887 28.6006L11.5654 28.2275C12.0332 29.1377 12.8115 29.8662 13.8066 30.3125C14.4736 30.6103 15.1933 30.7607 15.9189 30.7607C16.4609 30.7607 17.0068 30.6767 17.5361 30.5078C18.7832 30.1133 19.8076 29.293 20.4209 28.1982C20.9277 27.2891 21.0918 26.292 20.9033 25.2676L20.9463 25.2539C21.0576 25.2187 21.1582 25.166 21.2461 25.1006C22.7695 24.6133 25.3662 23.7881 27.2812 23.1807C27.9248 22.9775 28.3955 22.4463 28.5097 21.7949C28.623 21.1523 28.3681 20.5019 27.8447 20.0996ZM18.6758 27.2226C18.3125 27.8711 17.6933 28.3603 16.9306 28.6016C16.1592 28.8486 15.3408 28.8066 14.624 28.4873C14.166 28.2812 13.79 27.9785 13.5244 27.6064L18.9736 25.8799C19.0137 26.3496 18.915 26.793 18.6758 27.2226ZM19.2724 23.6865L12.0996 25.96C12.0273 25.9668 11.9551 25.9805 11.8847 26.0019L4.37693 28.3369L6.01365 23.7226C6.13084 23.3906 6.13279 23.0234 6.01756 22.6875C5.67967 21.708 5.28221 20.7051 4.89842 19.7353C4.14256 17.8242 3.36033 15.8476 2.98826 13.9502C2.40037 10.956 3.94236 7.87792 6.65525 6.6328C6.90525 6.51757 7.09666 6.30566 7.18455 6.04589C7.27342 5.78612 7.25096 5.50194 7.124 5.25878L7.01463 5.0537C6.92674 4.89062 6.84861 4.75683 6.79783 4.60937C6.68162 4.27636 6.7158 3.9287 6.90232 3.59667C7.09471 3.24804 7.43455 2.98241 7.8574 2.84862C8.0449 2.79003 8.23826 2.76073 8.42771 2.76073C8.666 2.76073 8.89939 2.80663 9.11521 2.89745C9.49021 3.05663 9.77439 3.34569 9.89744 3.69628C9.9531 3.85253 9.97264 4.0205 9.95701 4.19628C9.92869 4.51757 10.0556 4.83202 10.2998 5.04198C10.5439 5.2539 10.8769 5.3369 11.1875 5.25683C16.9902 3.86425 19.1455 9.10741 21.1933 15.581C21.4336 16.3428 21.6621 17.0635 21.8867 17.706C21.9873 18 22.1738 18.2578 22.4228 18.4492L26.2627 21.4053C21.5019 22.916 19.8818 23.4316 19.2724 23.6865Z" fill="#707070"/>
</svg>
