<svg width="27" height="31" viewBox="0 0 27 31" fill="none" xmlns="http://www.w3.org/2000/svg">
<path d="M25.6738 8.05176L16.3203 1.0874C15.8848 0.764647 15.2725 0.845214 14.9365 1.27148L1.76661 18.0215C1.74854 18.0444 1.74366 18.0738 1.72791 18.098C1.6897 18.1562 1.66041 18.2164 1.63477 18.2825C1.61121 18.343 1.59388 18.4019 1.5824 18.4658C1.57642 18.4985 1.55836 18.5258 1.55567 18.5596L0.654303 29.8096C0.626959 30.1519 0.77735 30.4844 1.05176 30.6904C1.22755 30.8218 1.43848 30.8896 1.65137 30.8896C1.77149 30.8896 1.89356 30.8677 2.0088 30.8237L12.5449 26.7891C12.5603 26.7831 12.5701 26.7703 12.585 26.7637C12.6314 26.7435 12.6687 26.7105 12.7119 26.6832C12.7952 26.6302 12.8706 26.5736 12.9331 26.5011C12.9482 26.4838 12.9705 26.4775 12.9844 26.459L25.8731 9.45801C26.0342 9.2456 26.1035 8.97754 26.0664 8.71338C26.0283 8.44922 25.8877 8.21142 25.6738 8.05176ZM12.2815 7.88354L15.6133 10.3437C15.54 10.3768 15.4712 10.4215 15.419 10.4902L7.35889 21.0574L3.96485 18.4609L12.2815 7.88354ZM11.9229 24.5488C11.916 24.5435 11.9092 24.5381 11.9014 24.5322L8.15308 21.6649L16.2139 11.0967C16.27 11.0234 16.2942 10.9395 16.3047 10.8542L20.1514 13.6947L11.9229 24.5488ZM3.40308 20.5493L10.0225 25.6131L2.77442 28.3887L3.40308 20.5493ZM20.7556 12.8978L12.8999 7.09704L15.9063 3.27344L23.6699 9.05371L20.7556 12.8978Z" fill="#2E2E2E"/>
</svg>
