<svg width="31" height="31" viewBox="0 0 31 31" fill="none" xmlns="http://www.w3.org/2000/svg">
<path d="M15.7402 0.135254C7.46875 0.135254 0.740234 6.86426 0.740234 15.1353C0.740234 19.2417 2.45801 23.2163 5.4043 25.9912C5.48535 26.0791 5.57617 26.167 5.62402 26.2026C8.39941 28.7388 11.9922 30.1353 15.7402 30.1353C19.4941 30.1353 23.0869 28.7383 25.7852 26.2612C25.8975 26.1768 25.9932 26.084 26.0312 26.0396C29.0234 23.2148 30.7402 19.2402 30.7402 15.1353C30.7402 6.86426 24.0117 0.135254 15.7402 0.135254ZM24.6582 24.5854C24.6416 24.6011 24.5215 24.71 24.5059 24.7271C22.1055 26.9248 18.9932 28.1353 15.7402 28.1353C12.4922 28.1353 9.37891 26.9243 6.97363 24.7261C6.95605 24.7109 6.84277 24.5991 6.82422 24.585C4.19043 22.1016 2.74023 18.7456 2.74023 15.1353C2.74023 7.9668 8.57227 2.13525 15.7402 2.13525C22.9082 2.13525 28.7402 7.9668 28.7402 15.1353C28.7402 18.7446 27.291 22.1006 24.6582 24.5854Z" fill="#ffffff"/>
<path d="M23.0468 20.8633L22.958 20.7925C22.8408 20.6953 22.6797 20.5703 22.4599 20.3989C22.0439 20.0635 21.5849 19.792 21.0967 19.5928L20.3877 19.29C19.9883 19.1074 19.4336 19.0288 18.8281 18.9433C18.6738 18.9209 18.5068 18.897 18.3476 18.8711C18.3427 18.7427 18.3369 18.6123 18.332 18.4966L18.3281 18.3935C18.3193 18.1953 18.3115 18.0249 18.3017 17.8765C18.7002 17.4424 19.0049 16.9336 19.2295 16.3276C19.249 16.2744 19.2842 16.2139 19.3222 16.1665C19.7636 15.623 20.0478 15.0849 20.1894 14.5195C20.2949 14.1016 20.5146 13.2319 20.0254 12.4531C20.0049 12.4199 19.9922 12.3999 19.9941 12.2392L19.9961 12.1445C20.0019 12.0068 20.0019 11.8701 19.9863 11.7388C19.9297 11.1929 19.8535 10.4482 19.3154 9.7788C19.1172 9.04052 18.6445 8.47167 17.9453 8.13036C17.04 7.69091 16.0429 7.52147 14.9834 7.62938C13.1943 7.82079 11.8135 9.02294 11.4648 10.6933C11.373 11.144 11.3652 11.5835 11.3584 11.9399C11.3564 12.1055 11.3515 12.269 11.3564 12.3408L11.3193 12.4429C11.3047 12.4829 11.2851 12.5224 11.2558 12.5845C11.1679 12.7715 11.0478 13.0283 11.0185 13.3574C10.9326 14.3716 11.2607 15.3037 12.0595 16.27C12.2773 16.8857 12.5937 17.4243 13.0019 17.8745C12.9863 18.0078 12.9717 18.1621 12.9551 18.3481C12.9394 18.5019 12.9209 18.6899 12.9033 18.8691C12.7617 18.894 12.6133 18.916 12.4746 18.9375L12.373 18.9526C11.8349 19.0351 11.3261 19.1128 10.8916 19.3096L10.2304 19.5928C9.89743 19.729 9.53318 20.103 9.14646 20.499C8.9404 20.7109 8.6279 21.0312 8.50779 21.0928C8.26169 21.2192 8.16501 21.5205 8.29197 21.7661C8.37986 21.9385 8.55564 22.0376 8.7363 22.0376C8.81345 22.0376 8.89158 22.02 8.96482 21.9824C9.23044 21.8457 9.52341 21.5454 9.86228 21.1973C10.0898 20.9648 10.4687 20.5757 10.6123 20.5166L11.3652 20.1929C11.6133 20.0806 12.0761 20.0098 12.5244 19.9414L12.4482 19.4473L12.625 19.9258C12.9179 19.8813 13.25 19.8291 13.4902 19.7656C13.6885 19.7124 13.834 19.5434 13.8584 19.3393C13.8867 19.0874 13.9238 18.7153 13.9541 18.4033C13.9775 18.1479 13.998 17.9414 14.0224 17.7715C14.0449 17.6138 13.9912 17.4546 13.8779 17.3433C13.4941 16.9668 13.1992 16.4936 13.0068 15.9482C12.9629 15.8135 12.8828 15.6748 12.7861 15.5625C12.1963 14.8628 11.9511 14.189 12.0146 13.4433C12.0283 13.2925 12.0957 13.1484 12.1679 12.9936C12.2011 12.9258 12.2334 12.8569 12.2539 12.7983C12.291 12.7056 12.3252 12.5957 12.3408 12.4892C12.3515 12.311 12.3564 12.1318 12.3584 11.9551C12.3652 11.5581 12.3769 11.228 12.4443 10.8955C12.7021 9.66014 13.7402 8.76805 15.0869 8.62401C15.9599 8.53563 16.7734 8.67284 17.5078 9.02929C17.9658 9.25292 18.2451 9.59862 18.3564 10.0596C18.3818 10.1982 18.4648 10.3193 18.5263 10.3926C18.8877 10.8315 18.9433 11.3682 18.9922 11.8472C19.0019 11.9316 19 12.0156 18.9961 12.1133L18.9941 12.2241C18.9912 12.5063 19.0205 12.7319 19.1777 12.9844C19.4404 13.4018 19.3027 13.9482 19.2187 14.2778C19.1142 14.6968 18.8935 15.1084 18.5459 15.5366C18.4394 15.668 18.3496 15.8247 18.292 15.979C18.0888 16.5259 17.8095 16.9687 17.4355 17.333C17.3271 17.439 17.2724 17.5884 17.2871 17.7392C17.3056 17.9228 17.3164 18.147 17.3281 18.4355L17.333 18.5386C17.3427 18.7827 17.3564 19.0889 17.3691 19.3174C17.3818 19.5395 17.539 19.7266 17.7568 19.7764C18.0166 19.8359 18.375 19.8882 18.706 19.936C19.1972 20.0054 19.7041 20.0771 19.9843 20.2046L20.7177 20.5181C21.1172 20.6811 21.4912 20.9028 21.8388 21.1826C21.8457 21.1885 21.8877 21.2212 21.9453 21.2671C21.956 21.2764 21.9658 21.2851 21.9765 21.2939C22.0859 21.3799 22.1777 21.4521 22.2568 21.5122C22.3447 21.582 22.416 21.6382 22.4287 21.6484L22.4326 21.6431C22.6777 21.8135 22.747 21.7998 22.9306 21.7246C23.0967 21.6577 23.2148 21.5073 23.2392 21.3301C23.2666 21.1372 23.2754 21.0718 23.0449 20.8667L23.0468 20.8633Z" fill="#ffffff"/>
</svg>
