<svg width="29" height="31" viewBox="0 0 29 31" fill="none" xmlns="http://www.w3.org/2000/svg">
<path d="M27.8506 26.5435C27.8086 26.3203 27.7803 26.1558 27.7549 25.9985C27.6914 25.6255 27.6416 25.331 27.4873 24.8164C27.2754 24.1289 26.9971 23.4746 26.6719 22.8892C26.2295 22.0566 25.6738 21.3442 25.0156 20.7695L24.8662 20.6396C24.7764 20.5654 24.6797 20.4878 24.6445 20.4624C23.9922 19.9351 23.2724 19.5093 22.5039 19.1958C22.2871 19.1079 22.0713 19.0142 21.8545 18.9194L21.4346 18.7397C20.7978 18.4482 19.9336 18.3252 19.0029 18.1929C18.8262 18.168 18.6387 18.1411 18.4541 18.1128C18.4502 18.0225 18.4463 17.9336 18.4433 17.8481L18.4316 17.5786C18.4209 17.3184 18.4092 17.0898 18.3974 16.8862C18.9941 16.2168 19.4531 15.438 19.792 14.519C19.8076 14.478 19.8447 14.4062 19.8945 14.3437C20.5898 13.4897 21.0371 12.6392 21.2627 11.7451C21.4326 11.0752 21.7861 9.68212 20.9805 8.40478C20.9795 8.3999 20.9707 8.35449 20.9726 8.20849L20.9746 8.07226C20.9853 7.84716 20.9844 7.62353 20.9599 7.4165C20.876 6.61328 20.7519 5.41015 19.916 4.3413C19.5879 3.17138 18.8301 2.26953 17.7148 1.72558C16.2949 1.03662 14.7324 0.769037 13.0703 0.938959C10.2383 1.24169 8.05077 3.14843 7.49804 5.79785C7.35351 6.49902 7.34081 7.18603 7.33007 7.74609C7.32811 7.95214 7.32323 8.15673 7.31347 8.36083C7.30468 8.38378 7.29393 8.4121 7.27929 8.44872C7.26366 8.49365 7.24022 8.53759 7.20214 8.61718C7.06542 8.90527 6.85936 9.34081 6.81347 9.88867C6.67577 11.5005 7.19335 12.979 8.41308 14.4307C8.74315 15.3628 9.21679 16.1836 9.82518 16.8765C9.80565 17.0596 9.78612 17.27 9.76268 17.5195C9.74511 17.6977 9.7246 17.9033 9.70409 18.1094C9.54393 18.1357 9.3789 18.1606 9.22167 18.1846L9.0664 18.2085C8.23339 18.3364 7.44628 18.457 6.85351 18.7256L6.59862 18.8374C6.3164 18.9595 6.03515 19.081 5.75683 19.1973C4.98925 19.5122 4.28026 19.9307 3.68456 20.4136C3.59765 20.477 3.51464 20.542 3.31933 20.7065L3.25292 20.7685C2.59472 21.3423 2.03905 22.0522 1.61815 22.8506C1.39745 23.2393 1.19628 23.6675 1.02831 24.1035L0.956044 24.2783C0.815419 24.6265 0.668935 24.9853 0.667958 25.3945C0.624989 25.6435 0.560536 26 0.496083 26.3545L0.463857 26.5308C0.360341 27.0923 0.266591 27.6157 0.243154 27.7559C0.0800677 28.8877 0.676747 29.9087 1.76171 30.355C2.08104 30.4873 3.05272 30.8896 14.1338 30.8896C25.2119 30.8896 26.1826 30.4873 26.499 30.356C27.2168 30.0615 27.7236 29.5229 27.9365 28.8574C28.1191 28.6309 28.1963 28.3325 28.1396 28.0395L27.8506 26.5435ZM8.80565 10.0581C8.82226 9.87011 8.91308 9.67724 9.0244 9.44238C9.07714 9.33251 9.1289 9.21923 9.14843 9.15722C9.21288 8.99999 9.2705 8.81201 9.28417 8.74658C9.29393 8.69921 9.29979 8.65087 9.30272 8.60302C9.31933 8.32568 9.32714 8.04833 9.33007 7.77587C9.33886 7.28173 9.3496 6.72167 9.45604 6.2041C9.82811 4.42236 11.3301 3.13622 13.2764 2.92822C14.5654 2.79833 15.7607 3.00048 16.8398 3.52343C17.4785 3.83544 17.8525 4.29785 18.0058 4.92919C18.0547 5.19042 18.2051 5.41064 18.3135 5.53906C18.8174 6.15185 18.8955 6.89941 18.9717 7.64013C18.9863 7.75341 18.9814 7.86669 18.9756 8.0083L18.9726 8.17724C18.9668 8.63525 19.0176 9.02929 19.29 9.46581C19.6367 10.0195 19.4404 10.7915 19.3232 11.2549C19.1709 11.8613 18.8506 12.459 18.3398 13.0859C18.1582 13.3115 18.0117 13.5669 17.916 13.8257C17.6221 14.6235 17.2139 15.27 16.6689 15.8018C16.4521 16.0132 16.3437 16.3105 16.3721 16.6113C16.3974 16.8882 16.415 17.2275 16.4336 17.6641L16.4453 17.9316C16.4599 18.2837 16.4766 18.6958 16.4951 19.0107C16.5117 19.3119 16.6693 19.5733 16.8996 19.7463C14.5212 21.257 12.1904 20.4076 11.0863 19.8196C11.3716 19.6679 11.5754 19.3909 11.6142 19.0601C11.6592 18.6807 11.7129 18.125 11.7607 17.6274C11.7969 17.2441 11.8262 16.9336 11.8642 16.6787C11.9111 16.3623 11.8037 16.0425 11.5752 15.8184C11.0166 15.269 10.5869 14.5776 10.3096 13.7983C10.2158 13.4966 10.0459 13.2583 9.92577 13.1191C9.0703 12.103 8.71386 11.1304 8.80565 10.0581ZM9.35155 19.6202C9.32982 19.6549 9.31518 19.6916 9.29967 19.7283L9.21776 19.1968L9.35155 19.6202ZM2.22069 28.0591C2.23925 27.9409 2.33104 27.4351 2.43163 26.8901L2.46386 26.7114C2.53808 26.2988 2.61327 25.8838 2.65722 25.6309C2.67089 25.5464 2.67479 25.5073 2.66698 25.4214C2.67577 25.3589 2.74999 25.1768 2.81737 25.0107L2.88573 24.8442C3.02636 24.4805 3.18554 24.1416 3.37304 23.8105C3.69237 23.2041 4.09472 22.688 4.59081 22.2549L4.63866 22.2085C4.74901 22.1172 4.80858 22.0698 4.90624 21.9966C5.38671 21.6079 5.9287 21.2886 6.52147 21.0449C6.81249 20.9238 7.10155 20.7993 7.39257 20.6733L7.67577 20.5488C8.00292 20.401 8.63476 20.2989 9.26342 20.2018C9.30455 20.3594 9.38561 20.5079 9.52538 20.6138C10.3696 21.2513 11.907 21.9809 13.6885 22.0718V28.8889C6.29015 28.8809 3.03734 28.6772 2.52538 28.5063C2.21776 28.3799 2.20018 28.2002 2.22069 28.0591ZM26.0478 28.1489C26.0449 28.2187 26.0391 28.3828 25.751 28.5019C25.2291 28.6762 22.0056 28.8787 14.6885 28.8887V22.0568C15.8616 21.9484 17.0998 21.5311 18.2939 20.6084C18.4455 20.4912 18.5332 20.3255 18.5657 20.1506C18.6233 20.159 18.6819 20.1677 18.7383 20.1758C19.4365 20.2749 20.2285 20.3872 20.6269 20.5693L21.0586 20.7544C21.29 20.855 21.5195 20.9546 21.749 21.0478C22.3359 21.2871 22.8867 21.6133 23.416 22.04C23.4609 22.0747 23.5303 22.1309 23.5752 22.1665L23.7021 22.2773C24.1728 22.689 24.5781 23.2104 24.9141 23.8442C25.1826 24.3257 25.4043 24.8511 25.5732 25.3979C25.6924 25.7954 25.7285 26.0151 25.7822 26.331C25.8096 26.4932 25.8398 26.6748 25.8867 26.9209C25.8867 26.9214 25.8867 26.9224 25.8877 26.9233L26.081 27.9253C26.0615 27.9976 26.0498 28.0727 26.0478 28.1489Z" fill="#b4b4b4"/>
</svg>
