<svg width="31" height="31" viewBox="0 0 31 31" fill="none" xmlns="http://www.w3.org/2000/svg">
<path d="M28.7305 11.9644L27.3535 11.7314C27.2383 11.4155 27.1104 11.1064 26.9707 10.8057L27.7783 9.67139C28.5596 8.57715 28.4355 7.09717 27.4863 6.1543L25.7432 4.41406C24.8154 3.48486 23.2666 3.37012 22.2305 4.11865L21.0957 4.92969C20.7666 4.77686 20.4326 4.63965 20.0947 4.51807L19.8682 3.17334C19.6475 1.8501 18.5156 0.890137 17.1748 0.890137H14.7109C13.374 0.890137 12.2422 1.84912 12.0195 3.16846L11.7783 4.57129C11.4668 4.68799 11.1582 4.81738 10.8555 4.96045L9.7373 4.15332C8.68652 3.39893 7.12793 3.52734 6.21875 4.44775L4.47266 6.18994C3.52344 7.13574 3.39844 8.61475 4.17578 9.70703L5 10.8652C4.86133 11.168 4.73535 11.479 4.62207 11.7964L3.27832 12.0234C1.95605 12.2437 0.996094 13.377 0.996094 14.7188V17.1797C0.996094 18.5181 1.95508 19.6519 3.27539 19.8745L4.67578 20.1123C4.79199 20.4253 4.92188 20.7339 5.06543 21.0366L4.26562 22.1504C3.4834 23.2476 3.6084 24.728 4.55762 25.6655L6.30078 27.4097C7.22559 28.3354 8.7832 28.4482 9.81055 27.7036L10.9707 26.8799C11.249 27.0068 11.5371 27.125 11.834 27.2334L12.0635 28.6128C12.2881 29.9321 13.4219 30.8896 14.7598 30.8896H17.2266C18.5684 30.8896 19.7012 29.9307 19.9219 28.6113L20.1543 27.2354C20.4658 27.1216 20.7754 26.9937 21.0801 26.8525L22.2119 27.6621C23.2607 28.4111 24.8066 28.2939 25.7295 27.3677L27.4697 25.6274C28.4229 24.6816 28.5488 23.2017 27.7686 22.1094L26.957 20.9692C27.1006 20.6602 27.2285 20.3516 27.3418 20.0444L28.7129 19.8159C30.0361 19.5977 30.9961 18.4639 30.9961 17.1201V14.6729C31.0146 13.3291 30.0615 12.1899 28.7305 11.9644ZM28.9961 17.1201C28.9961 17.4805 28.7402 17.7842 28.3848 17.8428L26.4189 18.1709C26.0439 18.2334 25.7363 18.5039 25.627 18.8687C25.457 19.4321 25.2158 20.0146 24.9102 20.5991C24.7354 20.9326 24.7627 21.3359 24.9814 21.6426L26.1406 23.2705C26.3486 23.562 26.3154 23.9561 26.0586 24.2104L24.3145 25.9541C24.0586 26.2095 23.6514 26.2324 23.376 26.0352L21.7568 24.8774C21.4473 24.6582 21.043 24.6284 20.709 24.8062C20.1484 25.1011 19.5654 25.3418 18.9756 25.5215C18.6133 25.6318 18.3447 25.938 18.2812 26.3115L17.9492 28.2803C17.8906 28.6333 17.5859 28.8896 17.2266 28.8896H14.7598C14.4004 28.8896 14.0947 28.6318 14.0352 28.2808L13.708 26.314C13.6465 25.9414 13.3799 25.6353 13.0186 25.5229C12.417 25.3359 11.8535 25.1045 11.3438 24.8354C11.1973 24.7578 11.0371 24.7197 10.877 24.7197C10.6729 24.7197 10.4707 24.7817 10.2979 24.9043L8.64453 26.0786C8.37207 26.2773 7.9668 26.2456 7.71484 25.9956L5.96777 24.2471C5.71582 23.9985 5.68555 23.6045 5.89258 23.314L7.04395 21.7109C7.2666 21.3999 7.29297 20.9888 7.11133 20.6523C6.81348 20.1011 6.56836 19.521 6.38281 18.9272C6.27051 18.5684 5.9668 18.3027 5.5957 18.2397L3.6084 17.9028C3.25391 17.8428 2.99609 17.5386 2.99609 17.1797V14.7188C2.99609 14.3589 3.25293 14.0552 3.60938 13.9956L5.55078 13.6675C5.92578 13.604 6.2334 13.333 6.3418 12.9678C6.52344 12.3608 6.75977 11.7783 7.04492 11.2363C7.2207 10.9023 7.19336 10.498 6.97461 10.1904L5.80469 8.54688C5.59668 8.25537 5.63086 7.85986 5.88477 7.60645L7.63574 5.8584C7.87891 5.61133 8.30078 5.58398 8.56934 5.77686L10.1777 6.9375C10.4883 7.16211 10.8984 7.18799 11.2363 7.00732C11.79 6.70947 12.3711 6.46484 12.9629 6.27881C13.3213 6.1665 13.5859 5.86377 13.6494 5.49365L13.9912 3.50391C14.0508 3.14844 14.3535 2.89014 14.7109 2.89014H17.1748C17.5332 2.89014 17.8359 3.14746 17.8955 3.50342L18.2227 5.44482C18.2861 5.82031 18.5576 6.12744 18.9219 6.23682C19.5361 6.42041 20.1406 6.66943 20.7207 6.97607C21.0557 7.15283 21.46 7.12451 21.7695 6.90576L23.3975 5.74316C23.6719 5.54443 24.0742 5.57324 24.3291 5.82861L26.0752 7.57129C26.3281 7.82275 26.3594 8.2168 26.1504 8.51025L24.9951 10.1328C24.7754 10.4409 24.749 10.8462 24.9258 11.1802C25.2129 11.7231 25.4541 12.3071 25.6436 12.9155C25.7559 13.2749 26.0605 13.541 26.4316 13.6035L28.3965 13.936C28.749 13.9961 29.001 14.2944 28.9961 14.6592V17.1201V17.1201Z" fill="#707070"/>
<path d="M15.9961 11.2412C13.4336 11.2412 11.3486 13.3267 11.3486 15.8896C11.3486 18.4521 13.4336 20.5371 15.9961 20.5371C18.5596 20.5371 20.6445 18.4521 20.6445 15.8896C20.6445 13.3267 18.5596 11.2412 15.9961 11.2412ZM15.9961 19.5371C13.9854 19.5371 12.3486 17.9009 12.3486 15.8896C12.3486 13.8779 13.9854 12.2412 15.9961 12.2412C18.0078 12.2412 19.6445 13.8779 19.6445 15.8896C19.6445 17.9009 18.0078 19.5371 15.9961 19.5371Z" fill="#707070"/>
</svg>
