<svg width="24" height="31" viewBox="0 0 24 31" fill="none" xmlns="http://www.w3.org/2000/svg">
<path d="M16.7979 15.8584H5.31934V16.8584H16.7979V15.8584Z" fill="#2E2E2E"/>
<path d="M16.7979 18.7773H5.31934V19.7773H16.7979V18.7773Z" fill="#2E2E2E"/>
<path d="M23.9356 22.0475C23.9356 21.5643 23.7473 21.11 23.4055 20.7683L23.1233 20.4863C22.7818 20.1447 22.3274 19.9565 21.8443 19.9565C21.3611 19.9565 20.907 20.1447 20.5652 20.4863L16.0943 24.9573L13.8316 22.6946C13.49 22.3529 13.0357 22.1648 12.5525 22.1648C12.0694 22.1648 11.615 22.353 11.2732 22.6948L10.991 22.9773C10.2859 23.6825 10.2859 24.8301 10.9912 25.5352L13.2532 27.7971L13.9488 28.5166L15.375 29.9432L16.084 30.6522L16.1956 30.54L16.8135 29.9434L18.24 28.5173L18.9436 27.814L18.9312 27.8015L23.4058 23.3269C23.7476 22.985 23.9358 22.5306 23.9356 22.0475ZM22.6988 22.6198L17.5208 27.7979L17.533 27.8102L16.1065 29.2362L16.0943 29.2241L16.0823 29.2362L14.656 27.8096L14.668 27.7979L11.6983 24.8281C11.3824 24.5122 11.3824 24.0002 11.6983 23.6842L11.9805 23.4019C12.1385 23.2438 12.3455 23.1648 12.5525 23.1648C12.7596 23.1648 12.9666 23.2438 13.1245 23.4017L15.5225 25.7996C15.6802 25.9575 15.8872 26.0364 16.0943 26.0364C16.3013 26.0364 16.5083 25.9575 16.6663 25.7996L21.2725 21.1934C21.4305 21.0355 21.6372 20.9565 21.8443 20.9565C22.0513 20.9565 22.2583 21.0355 22.4163 21.1934L22.6985 21.4756C23.0147 21.7916 23.0147 22.3037 22.6988 22.6198Z" fill="#2E2E2E"/>
<path d="M8.7373 28.9463H4.3916C3.35645 28.9463 2.51367 28.1035 2.51367 27.0684V9.75586C2.51367 8.729 3.34375 7.89368 4.36743 7.88037C4.59546 9.40454 5.77197 10.5723 7.19531 10.5723H14.9219C16.3403 10.5723 17.5144 9.41296 17.7483 7.89636C18.6968 7.98999 19.4434 8.78333 19.4434 9.75586V14.9824C19.4434 15.5352 19.8906 15.9824 20.4434 15.9824C20.9961 15.9824 21.4434 15.5352 21.4434 14.9824V9.75586C21.4434 7.68213 19.8042 5.99841 17.7551 5.89709C17.5518 4.44043 16.4832 3.30103 15.1543 3.18164C14.7812 1.88574 13.6953 0.946289 12.417 0.946289H9.42773C8.13574 0.946289 7.04004 1.90625 6.67871 3.22266C5.48755 3.46655 4.55396 4.5365 4.3606 5.88098C2.23633 5.89819 0.513672 7.62781 0.513672 9.75586V27.0684C0.513672 29.207 2.25293 30.9463 4.3916 30.9463H8.7373C9.29004 30.9463 9.7373 30.499 9.7373 29.9463C9.7373 29.3936 9.29004 28.9463 8.7373 28.9463ZM6.31934 6.39453C6.31934 5.73145 6.7207 5.1709 7.19531 5.1709H8.55176V4.1709C8.55176 3.50684 8.95312 2.94629 9.42773 2.94629H12.417C12.8916 2.94629 13.293 3.50684 13.293 4.1709V5.1709H14.9219C15.3965 5.1709 15.7979 5.73145 15.7979 6.39453V7.34766C15.7979 8.01172 15.3965 8.57227 14.9219 8.57227H7.19531C6.7207 8.57227 6.31934 8.01172 6.31934 7.34766V6.39453Z" fill="#2E2E2E"/>
</svg>
