<svg width="31" height="29" viewBox="0 0 31 29" fill="none" xmlns="http://www.w3.org/2000/svg">
<path d="M25.8222 17.2352L30.3481 12.8237C30.8661 12.3181 31.0497 11.5759 30.8261 10.8868C30.6027 10.1973 30.018 9.70392 29.2997 9.59949L21.2255 8.42633L17.6142 1.10925C17.2931 0.459229 16.644 0.0556641 15.9198 0.0556641C15.9189 0.0556641 15.9189 0.0556641 15.9179 0.0556641C15.1938 0.0561524 14.5446 0.460205 14.2255 1.10974L10.6142 8.42633L2.53801 9.59949C1.8217 9.70441 1.23698 10.1973 1.01359 10.8863C0.789961 11.5759 0.973555 12.3181 1.49162 12.8232L7.33488 18.5196L5.95598 26.5608C5.83293 27.2753 6.12077 27.9833 6.70744 28.4094C7.03825 28.6499 7.4257 28.7724 7.81608 28.7724C8.11662 28.7724 8.41838 28.6997 8.69646 28.5533L15.9189 24.7562L23.1423 28.5533C23.7834 28.8895 24.5468 28.8349 25.1332 28.4089C25.7189 27.9828 26.0068 27.2748 25.8837 26.5613L24.5048 18.5186L25.8222 17.2357C25.8222 17.2357 25.8222 17.2357 25.8222 17.2352ZM23.068 17.1273C22.623 17.5616 22.4198 18.1873 22.5253 18.8002L23.8761 26.6813L16.7992 22.9609C16.5238 22.8159 16.2223 22.7437 15.9198 22.7437C15.6183 22.7437 15.3158 22.8159 15.0404 22.9604L7.96355 26.6808L9.31535 18.7977C9.41887 18.1848 9.21477 17.5607 8.77067 17.1278L3.04436 11.5461L10.9579 10.3964C11.5727 10.3071 12.1047 9.92102 12.3808 9.3623L15.9198 2.19263L19.4589 9.36328C19.735 9.92102 20.267 10.3071 20.8818 10.3964L28.7944 11.5461L23.068 17.1273Z" fill="#2E2E2E"/>
<path d="M19.4637 16.958C19.4637 16.9575 19.494 16.8633 19.494 16.8628L21.1727 15.2266C21.4771 14.9304 21.5843 14.4955 21.4537 14.0915C21.3229 13.6874 20.9803 13.399 20.5606 13.338L18.2396 13.0008C18.2035 12.9954 18.1734 12.973 18.1578 12.9418L17.1202 10.839C16.933 10.4583 16.5521 10.2217 16.1278 10.2217C15.703 10.2217 15.3226 10.4583 15.1351 10.839L14.0975 12.9408C14.0819 12.973 14.0506 12.9954 14.0155 13.0008L11.6966 13.338C11.276 13.3985 10.9334 13.687 10.8026 14.0905C10.6708 14.4946 10.7782 14.9294 11.0829 15.2261L12.7616 16.8628L12.7918 16.958L12.3954 19.2692C12.3241 19.6879 12.493 20.1027 12.8365 20.352C13.0309 20.493 13.2582 20.5648 13.4867 20.5643C13.6622 20.5643 13.839 20.5219 14.0018 20.436L16.078 19.3453C16.1092 19.3301 16.1473 19.3297 16.1786 19.3448L18.2533 20.4365C18.6292 20.6346 19.077 20.6014 19.4188 20.352C19.7623 20.1027 19.931 19.6879 19.86 19.2692L19.4637 16.958ZM18.4779 17.1268L18.8741 19.438C18.8819 19.4819 18.8673 19.5175 18.8321 19.5434C18.796 19.5688 18.7579 19.5717 18.7179 19.5517L16.6419 18.4595C16.4811 18.3756 16.3043 18.3337 16.1278 18.3337C15.951 18.3337 15.7743 18.3756 15.6134 18.4605L13.5375 19.5517C13.4974 19.5707 13.4593 19.5698 13.4242 19.5434C13.388 19.517 13.3734 19.4814 13.3812 19.438L13.7765 17.1278C13.839 16.7686 13.7198 16.4017 13.4583 16.1474L11.7806 14.5107C11.7484 14.4794 11.7386 14.4423 11.7533 14.3999C11.7669 14.3579 11.7953 14.3331 11.8402 14.3267L14.16 13.9895C14.5201 13.9373 14.8314 13.7113 14.9935 13.3839L16.0311 11.2811C16.0692 11.2001 16.1852 11.2015 16.2242 11.2811L17.2618 13.3849C17.4237 13.7113 17.7352 13.9373 18.0953 13.9895L20.4161 14.3267C20.4601 14.3331 20.4894 14.3579 20.503 14.3999C20.5167 14.4418 20.5079 14.4794 20.4757 14.5107L18.797 16.1469C18.5355 16.4017 18.4164 16.7686 18.4779 17.1268Z" fill="#2E2E2E"/>
<path d="M15.7604 8.11975C16.1645 8.11975 16.4921 7.79216 16.4921 7.38806C16.4921 6.98396 16.1645 6.65637 15.7604 6.65637C15.3563 6.65637 15.0287 6.98396 15.0287 7.38806C15.0287 7.79216 15.3563 8.11975 15.7604 8.11975Z" fill="#2E2E2E"/>
<path d="M23.7457 14.154C24.1498 14.154 24.4774 13.8264 24.4774 13.4223C24.4774 13.0182 24.1498 12.6906 23.7457 12.6906C23.3416 12.6906 23.014 13.0182 23.014 13.4223C23.014 13.8264 23.3416 14.154 23.7457 14.154Z" fill="#2E2E2E"/>
<path d="M21.3068 24.0905C21.7109 24.0905 22.0385 23.7629 22.0385 23.3588C22.0385 22.9547 21.7109 22.6271 21.3068 22.6271C20.9027 22.6271 20.5751 22.9547 20.5751 23.3588C20.5751 23.7629 20.9027 24.0905 21.3068 24.0905Z" fill="#2E2E2E"/>
<path d="M10.3043 23.5124C10.7084 23.5124 11.036 23.1848 11.036 22.7807C11.036 22.3766 10.7084 22.049 10.3043 22.049C9.90022 22.049 9.57263 22.3766 9.57263 22.7807C9.57263 23.1848 9.90022 23.5124 10.3043 23.5124Z" fill="#2E2E2E"/>
<path d="M7.28723 13.5759C7.69133 13.5759 8.01892 13.2483 8.01892 12.8442C8.01892 12.4401 7.69133 12.1125 7.28723 12.1125C6.88313 12.1125 6.55554 12.4401 6.55554 12.8442C6.55554 13.2483 6.88313 13.5759 7.28723 13.5759Z" fill="#2E2E2E"/>
</svg>
